<?xml version="1.0" encoding="iso-8859-1"?>
<!-- Generator: Adobe Illustrator 19.0.0, SVG Export Plug-In . SVG Version: 6.00 Build 0)  -->
<svg version="1.1" id="Capa_1" xmlns="http://www.w3.org/2000/svg" xmlns:xlink="http://www.w3.org/1999/xlink" x="0px" y="0px"
	 viewBox="0 0 512 512" style="enable-background:new 0 0 512 512;" xml:space="preserve">
<g>
	<path style="fill:#35495E;" d="M141.241,0h229.517c19.501,0,35.31,15.809,35.31,35.31V476.69c0,19.501-15.809,35.31-35.31,35.31
		H141.241c-19.501,0-35.31-15.809-35.31-35.31V35.31C105.931,15.809,121.74,0,141.241,0z"/>
	<path style="fill:#90BAE1;" d="M379.586,97.103V476.69c-0.015,4.869-3.958,8.813-8.828,8.828H141.241
		c-4.869-0.015-8.813-3.958-8.828-8.828V97.103H379.586z"/>
	<path style="fill:#F09372;" d="M353.103,382.941v15.978H158.897v-15.978c-0.008-2.344,0.919-4.594,2.577-6.251
		c1.657-1.657,3.907-2.585,6.251-2.577h176.552c2.344-0.008,4.594,0.919,6.251,2.577
		C352.184,378.347,353.112,380.597,353.103,382.941z"/>
	<path style="fill:#ECF0F1;" d="M353.103,398.919v51.288c-0.015,4.869-3.958,8.813-8.828,8.828H167.724
		c-4.869-0.015-8.813-3.958-8.828-8.828v-51.288H353.103z"/>
	<path style="fill:#90BAE1;" d="M379.586,35.31v61.793H132.414V35.31c0.015-4.869,3.958-8.813,8.828-8.828h28.954
		c3.81,0.028,7.181,2.476,8.386,6.091l2.737,8.298c2.42,7.21,9.167,12.075,16.772,12.094h115.818
		c7.605-0.019,14.352-4.884,16.772-12.094l2.737-8.298c1.205-3.615,4.576-6.063,8.386-6.091h28.954
		C375.628,26.497,379.572,30.441,379.586,35.31z"/>
	<path style="fill:#A5A5A4;" d="M300.138,35.31c-2.348,0.023-4.607-0.9-6.267-2.56c-1.66-1.66-2.583-3.919-2.56-6.267
		c0.033-2.337,0.947-4.576,2.56-6.268c3.539-3.267,8.995-3.267,12.534,0c3.414,3.481,3.414,9.054,0,12.534
		C304.712,34.36,302.474,35.275,300.138,35.31z"/>
	<g>
		<path style="fill:#2C3E50;" d="M176.552,79.448h-17.655c-4.875,0-8.828-3.952-8.828-8.828s3.952-8.828,8.828-8.828h17.655
			c4.875,0,8.828,3.952,8.828,8.828S181.427,79.448,176.552,79.448z"/>
		<path style="fill:#2C3E50;" d="M353.103,79.448h-17.655c-4.875,0-8.828-3.952-8.828-8.828s3.952-8.828,8.828-8.828h17.655
			c4.875,0,8.828,3.952,8.828,8.828S357.979,79.448,353.103,79.448z"/>
	</g>
	<path style="fill:#7F8C8D;" d="M185.379,414.897h8.828c4.875,0,8.828,3.952,8.828,8.828v8.828c0,4.875-3.952,8.828-8.828,8.828
		h-8.828c-4.875,0-8.828-3.952-8.828-8.828v-8.828C176.552,418.849,180.504,414.897,185.379,414.897z"/>
	<path style="fill:#95A5A5;" d="M229.517,414.897h8.828c4.875,0,8.828,3.952,8.828,8.828v8.828c0,4.875-3.952,8.828-8.828,8.828
		h-8.828c-4.875,0-8.828-3.952-8.828-8.828v-8.828C220.69,418.849,224.642,414.897,229.517,414.897z"/>
	<path style="fill:#BDC3C7;" d="M273.655,414.897h8.828c4.875,0,8.828,3.952,8.828,8.828v8.828c0,4.875-3.952,8.828-8.828,8.828
		h-8.828c-4.875,0-8.828-3.952-8.828-8.828v-8.828C264.828,418.849,268.78,414.897,273.655,414.897z"/>
	<path style="fill:#7F8C8D;" d="M317.793,414.897h8.828c4.875,0,8.828,3.952,8.828,8.828v8.828c0,4.875-3.952,8.828-8.828,8.828
		h-8.828c-4.875,0-8.828-3.952-8.828-8.828v-8.828C308.966,418.849,312.918,414.897,317.793,414.897z"/>
	<path style="fill:#3F5C6C;" d="M163.31,114.759H348.69c7.313,0,13.241,5.928,13.241,13.241l0,0c0,7.313-5.928,13.241-13.241,13.241
		H163.31c-7.313,0-13.241-5.928-13.241-13.241l0,0C150.069,120.687,155.997,114.759,163.31,114.759z"/>
	<g>
		<circle style="fill:#E6E7E8;" cx="163.31" cy="128" r="13.241"/>
		<path style="fill:#E6E7E8;" d="M256,207.448c-12.188,0-22.069-9.881-22.069-22.069c0-12.188,9.881-22.069,22.069-22.069
			s22.069,9.881,22.069,22.069C278.055,197.562,268.182,207.434,256,207.448L256,207.448z M256,172.138
			c-7.313,0-13.241,5.928-13.241,13.241c0,7.313,5.928,13.241,13.241,13.241c7.313,0,13.241-5.928,13.241-13.241
			C269.233,178.07,263.31,172.146,256,172.138L256,172.138z"/>
		<path style="fill:#E6E7E8;" d="M291.397,189.793c-2.446,0.003-4.436-1.968-4.457-4.414c-0.01-1.166,0.445-2.288,1.266-3.117
			c0.821-0.829,1.938-1.296,3.105-1.297h0.086c2.438,0,4.414,1.976,4.414,4.414S293.834,189.793,291.397,189.793L291.397,189.793z"
			/>
		<path style="fill:#E6E7E8;" d="M291.397,225.103c-2.446,0.003-4.436-1.968-4.457-4.414c-0.01-1.166,0.445-2.288,1.266-3.117
			c0.821-0.829,1.938-1.296,3.105-1.297h0.086c2.438,0,4.414,1.976,4.414,4.414S293.834,225.103,291.397,225.103L291.397,225.103z"
			/>
		<path style="fill:#E6E7E8;" d="M317.793,233.931c-1.171,0.001-2.294-0.464-3.122-1.292c-0.828-0.828-1.293-1.951-1.292-3.122
			v-51.138l-1.293,1.293c-1.728,1.694-4.499,1.68-6.21-0.031c-1.711-1.711-1.725-4.481-0.031-6.21l8.828-8.828
			c1.262-1.262,3.16-1.639,4.809-0.956c1.649,0.683,2.724,2.292,2.725,4.077v61.793c0.001,1.171-0.464,2.294-1.292,3.122
			C320.087,233.467,318.964,233.932,317.793,233.931z"/>
		<path style="fill:#E6E7E8;" d="M353.103,233.931c-1.171,0.001-2.294-0.464-3.122-1.292c-0.828-0.828-1.293-1.951-1.292-3.122
			v-51.138l-1.293,1.293c-1.728,1.694-4.499,1.68-6.21-0.031c-1.711-1.711-1.725-4.481-0.031-6.21l8.828-8.828
			c1.262-1.262,3.16-1.639,4.809-0.956c1.649,0.683,2.724,2.292,2.725,4.077v61.793c0.001,1.171-0.464,2.294-1.292,3.122
			C355.397,233.467,354.274,233.932,353.103,233.931z"/>
		<path style="fill:#E6E7E8;" d="M247.168,233.931c-1.635-0.002-3.136-0.907-3.899-2.354c-0.763-1.446-0.664-3.196,0.257-4.547
			l22.328-32.715c0.889-1.303,2.405-2.033,3.977-1.914c1.573,0.118,2.963,1.066,3.647,2.487s0.558,3.099-0.331,4.402l-22.328,32.715
			C249.997,233.212,248.629,233.934,247.168,233.931L247.168,233.931z"/>
		<path style="fill:#E6E7E8;" d="M353.103,275.332v15.978H158.897v-15.978c0.015-4.869,3.958-8.813,8.828-8.828h176.552
			C349.145,266.519,353.089,270.463,353.103,275.332z"/>
	</g>
	<path style="fill:#ECF0F1;" d="M353.103,291.31v51.288c-0.015,4.869-3.958,8.813-8.828,8.828H167.724
		c-4.869-0.015-8.813-3.958-8.828-8.828V291.31H353.103z"/>
	<g>
		<path style="fill:#BDC3C7;" d="M185.379,339.862c-1.171,0.001-2.294-0.464-3.122-1.292s-1.293-1.951-1.292-3.122v-26.483
			c0-2.438,1.976-4.414,4.414-4.414s4.414,1.976,4.414,4.414v26.483c0.001,1.171-0.464,2.294-1.292,3.122
			S186.55,339.863,185.379,339.862z"/>
		<path style="fill:#BDC3C7;" d="M317.793,313.379H211.862c-2.438,0-4.414-1.976-4.414-4.414c0-2.438,1.976-4.414,4.414-4.414
			h105.931c2.438,0,4.414,1.976,4.414,4.414C322.207,311.403,320.231,313.379,317.793,313.379z"/>
		<path style="fill:#BDC3C7;" d="M317.793,331.034H211.862c-2.438,0-4.414-1.976-4.414-4.414c0-2.438,1.976-4.414,4.414-4.414
			h105.931c2.438,0,4.414,1.976,4.414,4.414C322.207,329.058,320.231,331.034,317.793,331.034z"/>
	</g>
</g>
<g>
</g>
<g>
</g>
<g>
</g>
<g>
</g>
<g>
</g>
<g>
</g>
<g>
</g>
<g>
</g>
<g>
</g>
<g>
</g>
<g>
</g>
<g>
</g>
<g>
</g>
<g>
</g>
<g>
</g>
</svg>
